<svg id="visual" viewBox="0 0 900 600" width="900" height="600" xmlns="http://www.w3.org/2000/svg" xmlns:xlink="http://www.w3.org/1999/xlink" version="1.1"><rect x="0" y="0" width="900" height="600" fill="#ffffff"></rect><defs><linearGradient id="grad1_0" x1="33.3%" y1="0%" x2="100%" y2="100%"><stop offset="20%" stop-color="#ffffff" stop-opacity="1"></stop><stop offset="80%" stop-color="#ffffff" stop-opacity="1"></stop></linearGradient></defs><defs><linearGradient id="grad2_0" x1="0%" y1="0%" x2="66.7%" y2="100%"><stop offset="20%" stop-color="#ffffff" stop-opacity="1"></stop><stop offset="80%" stop-color="#ffffff" stop-opacity="1"></stop></linearGradient></defs><g transform="translate(900, 0)"><path d="M0 378.6C-29.6 345 -59.3 311.4 -99.2 305.3C-139.1 299.2 -189.4 320.6 -222.5 306.3C-255.7 292 -271.8 242.1 -275.9 200.4C-280 158.8 -272.1 125.4 -287.2 93.3C-302.3 61.3 -340.5 30.6 -378.6 0L0 0Z" fill="#6c00ff"></path></g><g transform="translate(0, 600)"><path d="M0 -378.6C44.1 -380.6 88.2 -382.6 117 -360.1C145.7 -337.5 159.1 -290.4 194.6 -267.8C230 -245.2 287.6 -247.1 303.4 -220.4C319.1 -193.8 293.1 -138.5 298.6 -97C304.2 -55.5 341.4 -27.8 378.6 0L0 0Z" fill="#6c00ff"></path></g></svg>